<svg version="1.2" xmlns="http://www.w3.org/2000/svg" viewBox="0 0 190 193" width="190" height="193">
	<title>LOGO ONLY NO LETTERS-ai</title>
	<style>
		.s0 { fill: #211f26 } 
		.s1 { fill: #2ab0a1 } 
	</style>
	<g id="Capa 1">
		<g id="&lt;Group&gt;">
			<path id="&lt;Path&gt;" class="s0" d="m29.3 181.1c-9.2-1-20.9-4.8-21.8-29.9q-0.1-3-0.1-9.2 0-60.7 0-74.9 15.9 9.8 32 35.6 0 35.8 0 48c0 21.5 14.2 25.7 21.6 29.3-5.8 0.9-24.2 1.9-31.7 1.1z"/>
			<g id="&lt;Group&gt;">
				<g id="&lt;Group&gt;">
					<g id="&lt;Group&gt;">
						<path id="&lt;Path&gt;" class="s0" d="m7.2 20.9c14.5 0 36.8-1.2 41.9 13.1 9.5 31.2 25.7 86.8 46.3 121.8-23-20.9-68.7-64.1-88.1-87l-0.1-35.7c0 0 0-12.2 0-12.2z"/>
					</g>
					<g id="&lt;Group&gt;">
						<path id="&lt;Path&gt;" class="s0" d=""/>
					</g>
					<g id="&lt;Group&gt;">
						<g id="&lt;Group&gt;">
							<g id="&lt;Group&gt;">
								<path id="&lt;Path&gt;" class="s0" d=""/>
							</g>
							<g id="&lt;Group&gt;">
								<path id="&lt;Path&gt;" class="s0" d="m95.4 163.1c-28.3-28.2-60.3-66.6-88.2-94.4"/>
							</g>
						</g>
					</g>
				</g>
			</g>
			<g id="&lt;Group&gt;">
				<g id="&lt;Group&gt;">
					<g id="&lt;Group&gt;">
						<path id="&lt;Path&gt;" class="s0" d=""/>
					</g>
				</g>
			</g>
			<g id="&lt;Group&gt;">
				<path id="&lt;Path&gt;" class="s0" d=""/>
			</g>
			<g id="&lt;Group&gt;">
				<g id="&lt;Group&gt;">
					<g id="&lt;Group&gt;">
						<path id="&lt;Path&gt;" class="s0" d=""/>
					</g>
				</g>
			</g>
			<g id="&lt;Group&gt;">
				<g id="&lt;Group&gt;">
					<g id="&lt;Group&gt;">
						<path id="&lt;Path&gt;" class="s0" d=""/>
					</g>
				</g>
			</g>
			<g id="&lt;Group&gt;">
				<g id="&lt;Group&gt;">
					<g id="&lt;Group&gt;">
						<path id="&lt;Path&gt;" class="s0" d=""/>
					</g>
				</g>
			</g>
			<g id="&lt;Group&gt;">
				<g id="&lt;Group&gt;">
					<g id="&lt;Group&gt;">
						<path id="&lt;Path&gt;" class="s0" d=""/>
					</g>
				</g>
			</g>
			<g id="&lt;Group&gt;">
				<g id="&lt;Group&gt;">
					<g id="&lt;Group&gt;">
						<path id="&lt;Path&gt;" class="s0" d="m95.4 185.4q-44-41.5-88-83.1-0.1-67.2-0.1-69.2c15.8 28.5 32.1 48.4 43.9 61.2q20 21.7 44.2 61.5c2.5 12.3 1.3 22.9 0 29.6z"/>
					</g>
				</g>
			</g>
			<g id="&lt;Group&gt;">
				<g id="&lt;Group&gt;">
					<g id="&lt;Group&gt;">
						<path id="&lt;Path&gt;" class="s0" d=""/>
					</g>
					<g id="&lt;Group&gt;">
						<g id="&lt;Group&gt;">
							<g id="&lt;Group&gt;">
								<path id="&lt;Path&gt;" class="s0" d=""/>
							</g>
							<g id="&lt;Group&gt;">
								<path id="&lt;Path&gt;" class="s0" d="m95.4 163.1c-28.2-28.2-60.3-66.6-88.1-94.4"/>
							</g>
						</g>
					</g>
				</g>
			</g>
			<g id="&lt;Group&gt;">
				<g id="&lt;Group&gt;">
					<g id="&lt;Group&gt;">
						<path id="&lt;Path&gt;" class="s0" d=""/>
					</g>
					<g id="&lt;Group&gt;">
						<g id="&lt;Group&gt;">
							<g id="&lt;Group&gt;">
								<path id="&lt;Path&gt;" class="s0" d=""/>
							</g>
						</g>
					</g>
				</g>
			</g>
			<g id="&lt;Group&gt;">
				<g id="&lt;Group&gt;">
					<g id="&lt;Group&gt;">
						<path id="&lt;Path&gt;" class="s0" d="m183.5 33.1v35.7c-19.4 22.9-65.2 66.1-88.1 87 18.1-35.3 35.9-90.9 46.3-121.8 4.8-14.3 27.4-13.1 41.8-13.1z"/>
					</g>
					<g id="&lt;Group&gt;">
						<path id="&lt;Path&gt;" class="s0" d=""/>
					</g>
					<g id="&lt;Group&gt;">
						<g id="&lt;Group&gt;">
							<g id="&lt;Group&gt;">
								<path id="&lt;Path&gt;" class="s0" d="m95.4 163.1c28.2-28.2 60.3-66.5 88.1-94.3"/>
							</g>
						</g>
					</g>
				</g>
			</g>
			<g id="&lt;Group&gt;">
				<g id="&lt;Group&gt;">
					<g id="&lt;Group&gt;">
						<path id="&lt;Path&gt;" class="s0" d="m139.6 94.3c11.8-12.8 28.1-32.7 43.9-61.2q0 2-0.1 69.2-44 41.6-88 83.1c-1.3-6.7-2.6-17.3 0-29.6"/>
					</g>
				</g>
			</g>
			<g id="&lt;Group&gt;">
				<path id="&lt;Path&gt;" class="s1" d="m2.1 20.9h3.5l0.1 130.2c0.2 9.1 2 17.8 6.8 23.6 3.4 4.1 7.3 6.7 15 7.8 8.8 1.2 27.2-0.5 35.8-1.2 13.9-1.5 21.3 8.4 23.3 11l-62.9-0.1c-11.7-0.6-21.8-6.6-21.5-26.3v-14.7z"/>
			</g>
			<path id="&lt;Path&gt;" class="s0" d="m129.8 180.1c7.4-3.6 21.6-7.9 21.6-29.4q0-12.1 0-48 16.1-25.8 32.1-35.5 0 14.1 0 74.9 0 6.1-0.1 9.2c-1 25.1-12.7 28.9-21.9 29.9-7.5 0.8-25.9-0.2-31.7-1.1z"/>
			<g id="&lt;Group&gt;">
				<path id="&lt;Path&gt;" class="s1" d="m188.6 151.3v14.7c0.3 19.7-9.8 25.7-21.5 26.3h-62.9c2-2.6 9.4-12.4 23.3-11 8.6 0.7 27 2.5 35.9 1.3 7.6-1.1 11.5-3.7 14.9-7.8 4.8-5.8 6.6-14.5 6.9-23.6v-130.2h3.5z"/>
			</g>
			<g id="&lt;Group&gt;">
				<path id="&lt;Path&gt;" class="s1" d="m33.5 20.8c-0.5-0.1 7.3-0.6 13.8 2.1 6.1 2.5 10.7 6 16.7 3.5 4.3-1.7 7.8-4.8 10.8-8.1 1.2-1.3 2.4-2.8 4.1-3.5 1.6-0.8 4-0.5 4.9 1 0.8 1.1 0.5 2.5-0.1 3.7-0.5 1.2-1.4 2.3-1.8 3.5-0.2 0.5-0.3 1-0.1 1.4 0.3 1.3 2.2 1.7 3.4 0.7 1-1 2.9-3.3 3.7-6.2 0.9-2.9 1.2-5.3 1.7-7 1.2-3.4 4.8-8.9 10.7-10.5 2.7-0.7 6.9-0.2 9.3 1.7 4.6 3.7 4.2 6.8 4 9.6-0.6 6.9-6 13.2-12.9 15.7-5.7 2.1-12.4 1.6-17.7 4.4-1.1 0.6-2.1 2.1-1.1 2.7 0.3 0.3 0.7 0.3 1.2 0.2 2-0.2 3.8-1.1 5.7-1.7 2.3-0.6 4.5 0 5.2 1.8 0.9 2-1.1 4.1-3.2 5.1-2.6 1.2-5.7 1.7-8.6 1.3 3.4 3 12.8 4.1 17.2 2.8 4.3-1.2 4.5-2.8 6.9-4.1 2.7-1.4 6.5-1.3 9 1 2.3 2.2 2.6 5.8 1.2 8.5-1.4 2.8-4.2 4.7-7.3 5.5-3.1 0.9-5.6 0.6-7.4 0.2-1.9-0.4-4.9-1.3-7.5-2.6-3.8-1.9-7.2-4.9-11.4-5.4-1.1-0.2-2.7 0.3-2.5 1.3 0.1 0.4 0.4 0.7 0.8 0.9 1.6 1 3.6 1.2 5.5 1.6 2 0.5 3.7 2.1 3.3 3.9-0.4 1.9-2.1 3.1-4.2 3-1.7-0.1-3.2-0.4-5.1-1.4-1.5-0.8-3.8-3.1-7.5 1.4q-9.7 11.7 6.8 64.7c-20-52.1-21.7-63.7-30.2-89.3-1.7-5.1-4.2-10.2-17.3-13.4z"/>
			</g>
		</g>
	</g>
</svg>