<svg id="Capa_1" data-name="Capa 1" xmlns="http://www.w3.org/2000/svg" viewBox="0 0 400 559.17"><defs><style>.cls-1{fill:#38a89d;}.cls-2{fill:#221d24;}</style></defs><path class="cls-1" d="M0,42.33H7.43L7.52,321c.59,19.49,4.42,38.05,14.69,50.54,7.21,8.76,15.59,14.35,32,16.65,19,2.66,58.31-1.17,76.67-2.65,29.7-3.09,45.59,18.15,49.9,23.59L46.11,409h0c-24.9-1.36-46.52-14.2-46-56.38V321.22Z"/><path class="cls-2" d="M297.85,70.47c-22.24,66-60.37,185.05-99.12,260.66,0,0-.13-.22-.35-.58-43.87-75-78.31-193.46-98.77-260.08C88.81,39.86,41,42.38,10.12,42.38v26h0l.13,38.79c0,11.54,0,24.55,0,37.48l-.07-.07.07.07v.08l-.15-.15.15.16c0,36.24.09,71.71.09,71.71v85.11s0,13.13.24,19.59c2,53.82,27.05,62,46.76,64.06,16.07,1.72,55.43-.43,67.78-2.37C109.38,375.22,79,366.06,79,320.05V281.3L198.73,394.47h0l119.9-113.29v39c0,46-30.43,55.17-46.19,62.83,12.35,1.94,51.71,4.09,67.78,2.37,19.71-2.11,44.75-10.24,46.76-64.07.24-6.46.24-19.58.24-19.58V144c.06-36.49.12-73.51.12-75.63v-26C356.49,42.38,308.22,39.71,297.85,70.47Z"/><path class="cls-1" d="M398.39,42.47H391l-.09,278.67c-.59,19.49-4.42,38.05-14.7,50.54-7.2,8.76-15.58,14.34-32,16.64-19,2.67-58.31-1.17-76.67-2.65-29.7-3.09-45.58,18-49.9,23.44l134.68,0h0c24.9-1.37,46.52-14.2,46-56.38V321.37Z"/><path class="cls-1" d="M66.25,42.24C65.32,42,81.91,41,95.86,46.65c13,5.3,22.81,12.75,35.69,7.51,9.12-3.72,16.64-10.26,23.08-17.39,2.57-2.84,5.14-5.9,8.73-7.49S172,28.15,174,31.35c1.54,2.39,1,5.51-.21,8.07s-3,4.88-3.92,7.54a4.92,4.92,0,0,0-.29,2.9c.74,2.7,4.89,3.53,7.29,1.38a30.79,30.79,0,0,0,8.06-13.12c1.77-6.24,2.43-11.28,3.63-14.95C191,15.74,198.77,4.1,211.39.69c5.8-1.56,14.72-.53,20,3.65,9.75,7.77,8.94,14.47,8.47,20.4-1.16,14.75-12.88,28.37-27.53,33.68-12.28,4.46-26.54,3.41-38,9.51-2.28,1.21-4.5,4.33-2.37,5.76a3.86,3.86,0,0,0,2.58.4c4.28-.45,8.16-2.48,12.3-3.6,4.87-1.32,9.52,0,11.16,3.72,1.9,4.34-2.48,8.87-6.94,11A33.51,33.51,0,0,1,172.74,88c7.12,6.3,27.37,8.79,36.72,6.07s9.65-6.15,14.71-8.78c5.82-3,14-3,19.31,2.06,4.88,4.59,5.5,12.3,2.57,18.19s-9,10-15.65,11.85a31.7,31.7,0,0,1-15.71.34,71.35,71.35,0,0,1-16.14-5.6c-8.11-4.11-15.36-10.42-24.47-11.63-2.35-.31-5.67.69-5.21,2.88a3.31,3.31,0,0,0,1.59,1.9c3.42,2.23,7.77,2.65,11.81,3.53,4.21.93,8,4.47,7.14,8.3-.91,4.06-4.6,6.52-9,6.33a22.89,22.89,0,0,1-10.95-3c-3.15-1.76-8.14-6.61-16,3C132.73,148.5,168,261.89,168,261.89c-42.86-111.48-46.44-136.38-64.61-191C99.73,59.88,94.35,49,66.25,42.24Z"/><path class="cls-2" d="M3.27,555a.72.72,0,0,0-.73-.87H1.69a.88.88,0,0,1-.89-.88V552a.89.89,0,0,1,.89-.89H3.07a1.09,1.09,0,0,0,1-.87l.55-3.33a.72.72,0,0,0-.74-.87H2.77a.89.89,0,0,1-.89-.88v-1.27a.89.89,0,0,1,.89-.88H4.44a1.09,1.09,0,0,0,1-.87L6,539.29a1.1,1.1,0,0,1,1-.88H8.34a.73.73,0,0,1,.74.88l-.49,2.83a.72.72,0,0,0,.73.87h3a1.08,1.08,0,0,0,1-.87l.47-2.83a1.1,1.1,0,0,1,1-.88h1.35a.73.73,0,0,1,.74.88l-.49,2.83a.72.72,0,0,0,.73.87H18a.88.88,0,0,1,.88.88v1.27A.88.88,0,0,1,18,546H16.67a1.08,1.08,0,0,0-1,.87l-.56,3.33a.73.73,0,0,0,.74.87H17a.88.88,0,0,1,.88.89v1.26a.87.87,0,0,1-.88.88H15.3a1.11,1.11,0,0,0-1,.87l-.51,3a1.1,1.1,0,0,1-1,.88H11.36a.73.73,0,0,1-.73-.88l.51-3a.72.72,0,0,0-.73-.87h-3a1.09,1.09,0,0,0-1,.88l-.49,2.94a1.11,1.11,0,0,1-1,.88H3.5a.73.73,0,0,1-.74-.88Zm7.67-3.9a1.09,1.09,0,0,0,1-.87l.57-3.33a.71.71,0,0,0-.73-.87h-3a1.1,1.1,0,0,0-1,.87l-.57,3.33a.72.72,0,0,0,.74.87Z"/><path class="cls-2" d="M54.09,558.69a14.73,14.73,0,0,1-1.76.13H48.15a.89.89,0,0,1-.88-.89V538.85a.94.94,0,0,1,.88-.92s3.48-.15,4.6-.15a7.61,7.61,0,0,1,4.78,1.33,4.56,4.56,0,0,1,1.69,3.81,3.87,3.87,0,0,1-1.08,2.65,5,5,0,0,1-1.57,1.15c-.45.19-.45.48,0,.65A8.31,8.31,0,0,1,59.36,549a5.78,5.78,0,0,1,1.13,3.76,5.36,5.36,0,0,1-2,4.38C57.13,558.27,54.09,558.69,54.09,558.69ZM51,540.19a1,1,0,0,0-.89.94v4.22a1,1,0,0,0,.89.94s.45,0,1.33,0c2.7,0,4.05-1.09,4.05-3.29,0-1.92-1.24-2.89-3.72-2.89C51.71,540.14,51,540.19,51,540.19Zm0,8.22a.93.93,0,0,0-.89.92v6.18a1,1,0,0,0,.89,1s.84.07,1.36.07a6.21,6.21,0,0,0,3.91-1,3.9,3.9,0,0,0,1.23-3.2,3.66,3.66,0,0,0-1.17-3,7.92,7.92,0,0,0-3-.88,15,15,0,0,0-1.77-.06Z"/><path class="cls-2" d="M103.35,558a.58.58,0,0,1-.58.83h-1.43a1.33,1.33,0,0,1-1.17-.84l-4.54-13.57c-.16-.46-.42-.46-.58,0L90.27,558a1.34,1.34,0,0,1-1.17.84H87.69a.57.57,0,0,1-.56-.83l7.61-19.48c.18-.46.49-.83.7-.83s.51.38.68.83Z"/><path class="cls-2" d="M143.43,558.82a1.78,1.78,0,0,1-1.36-.76l-4.63-7.44a1.73,1.73,0,0,0-1.28-.78c-.46,0-2.2.28-2.2.77v7.32a.89.89,0,0,1-.89.89H132a.89.89,0,0,1-.89-.89V538.85a.92.92,0,0,1,.84-.92l1.38-.07c1.37-.07,2.37-.11,3-.11q7.52,0,7.52,6a5.7,5.7,0,0,1-1.21,3.54,6,6,0,0,1-2.07,1.6.74.74,0,0,0-.34,1.1l5.11,8.1c.26.41.07.75-.42.75Zm-8.59-18.38a1,1,0,0,0-.88,1v5a1,1,0,0,0,.88,1s.47.05,1.11.05a6.57,6.57,0,0,0,3.73-.83,3.36,3.36,0,0,0,1.17-3,2.74,2.74,0,0,0-1.26-2.52,7.82,7.82,0,0,0-4-.76C135.35,540.39,134.84,540.44,134.84,540.44Z"/><path class="cls-2" d="M185.48,538.43a.87.87,0,0,1,.5,1.13l-.31.79a.85.85,0,0,1-1.13.47,9.86,9.86,0,0,0-3.49-.65,5.12,5.12,0,0,0-4.4,2.37,10.31,10.31,0,0,0-1.66,6.09,9.24,9.24,0,0,0,1.7,5.77,5.32,5.32,0,0,0,4.39,2.21,7.14,7.14,0,0,0,3.83-1.52.82.82,0,0,1,1.2.16l.53.74a.83.83,0,0,1-.22,1.2s-3,2-5.64,2a7.79,7.79,0,0,1-6.43-2.94,12.15,12.15,0,0,1-2.35-7.77,11.91,11.91,0,0,1,2.51-7.76,8,8,0,0,1,6.47-3.09A14.94,14.94,0,0,1,185.48,538.43Z"/><path class="cls-2" d="M219.23,540.53a.89.89,0,0,0-.89.88v4a.89.89,0,0,0,.89.88h5.12a.89.89,0,0,1,.88.89v.65a.89.89,0,0,1-.88.88h-5.12a.89.89,0,0,0-.89.88v5.75a.88.88,0,0,0,.89.88h7.68a.88.88,0,0,1,.88.89v.79a.88.88,0,0,1-.88.89H216.38a.89.89,0,0,1-.88-.89V538.85a.89.89,0,0,1,.88-.88h10.69a.89.89,0,0,1,.88.88v.79a.89.89,0,0,1-.88.89Z"/><path class="cls-2" d="M257.06,558.82a.89.89,0,0,1-.89-.89V538.85a.89.89,0,0,1,.89-.88h1.08a.89.89,0,0,1,.88.88v16.52a.88.88,0,0,0,.89.88h7.65a.89.89,0,0,1,.88.89v.79a.89.89,0,0,1-.88.89Z"/><path class="cls-2" d="M295,548.21a12.35,12.35,0,0,1,2.27-7.57,7.25,7.25,0,0,1,6.13-3,8.12,8.12,0,0,1,6.65,2.8q2.31,2.8,2.31,7.81t-2.32,8a8,8,0,0,1-6.64,2.91,7.18,7.18,0,0,1-6.17-3.07A13.09,13.09,0,0,1,295,548.21Zm3,0a11.64,11.64,0,0,0,1.42,6,4.41,4.41,0,0,0,4,2.4,5.07,5.07,0,0,0,4.45-2.21,10.75,10.75,0,0,0,1.53-6.19q0-8.06-6-8.05a4.48,4.48,0,0,0-4,2.16A10.88,10.88,0,0,0,298,548.21Z"/><path class="cls-2" d="M354.61,559.1a1.6,1.6,0,0,1-.94-.72l-9.75-13.8c-.28-.4-.51-.32-.51.16v13.19a.89.89,0,0,1-.89.89h-.93a.89.89,0,0,1-.89-.89V538.85c0-.48.26-.88.57-.88a1.69,1.69,0,0,1,1.09.71l9.45,13c.29.39.52.32.52-.17V538.85a.89.89,0,0,1,.88-.88h.94a.88.88,0,0,1,.88.88v19.37C355,558.7,354.84,559.1,354.61,559.1Z"/><path class="cls-2" d="M398.89,558a.58.58,0,0,1-.58.83h-1.43a1.33,1.33,0,0,1-1.17-.84l-4.54-13.57c-.16-.46-.42-.46-.58,0L385.81,558a1.34,1.34,0,0,1-1.17.84h-1.41a.57.57,0,0,1-.56-.83l7.61-19.48c.18-.46.49-.83.7-.83s.51.38.68.83Z"/><path class="cls-2" d="M140.17,517.55a7.1,7.1,0,0,1-6.9,7.81,8.15,8.15,0,0,1-7.79-7.82l-1.4-26.3c-.23-4.3-.59-11.33-.81-15.63,0,0-1-21.09-.92-33.46h0c-.22,0-1.36,3.39-2.54,7.53,0,0-4.83,16.95-9,29.58L98.23,517c-1.36,4.08-5,7.43-8.19,7.43S83.26,521.08,82,517l-9.15-29.34c-1.29-4.11-3.33-10.85-4.54-15,0,0-5.43-18.53-7.93-30.51h0c-.22,0-.53,3.52-.69,7.82,0,0-.76,20.3-1.55,34.24l-1.81,33.33c-.23,4.3-3.62,7.82-7.53,7.82s-6.87-3.52-6.57-7.81L48,433.42a8.54,8.54,0,0,1,8.36-7.81h3.3a11.5,11.5,0,0,1,10.24,7.45l9.39,29c1.33,4.1,3.39,10.83,4.58,15,0,0,4.54,15.78,7,26.72h0c.22,0,1.28-3.41,2.35-7.58,0,0,3.71-14.42,7.66-26.8L113,433a11.62,11.62,0,0,1,10.3-7.43h3.43a8.44,8.44,0,0,1,8.3,7.81Z"/><path class="cls-2" d="M182.64,433.57a7.63,7.63,0,1,1,15.26,0v84a7.63,7.63,0,1,1-15.26,0Z"/><path class="cls-2" d="M296.61,519c0,3.51-3.52,6.38-7.82,6.38H250.35a7.85,7.85,0,0,1-7.83-7.83v-84a7.64,7.64,0,1,1,15.27,0v71.2a7.85,7.85,0,0,0,7.82,7.83h23.18C293.09,512.6,296.61,515.47,296.61,519Z"/><path class="cls-2" d="M399,518.68c2.25,3.67.57,6.68-3.74,6.68h-2.11a15.26,15.26,0,0,1-11.82-6.73l-19.91-33.55c-2.2-3.7-5.89-4.39-8.21-1.52s-4.21,8.73-4.21,13v20.94a7.57,7.57,0,1,1-15.14,0v-84a7.57,7.57,0,1,1,15.14,0v31.09a77.2,77.2,0,0,0,.2,7.83c.11,0,2.1-3,4.44-6.58,0,0,.62-1,3-4.49L378,432.07a17.32,17.32,0,0,1,12.42-6.33h2.91c4.3,0,5.66,2.78,3,6.18L372.89,462a12.19,12.19,0,0,0-.72,12.85Z"/><path class="cls-2" d="M4.29,511a1,1,0,0,0,1,1H25a1,1,0,0,1,1,1v1.38a1,1,0,0,1-1,1H5.29a1,1,0,0,0-1,1v5.88a1,1,0,0,1-1,1h-1a1,1,0,0,1-1-1V504.81a1,1,0,0,1,1-1h1a1,1,0,0,1,1,1Z"/><path class="cls-2" d="M26,468.44a1,1,0,0,1-1,1h-10a1,1,0,0,0-1,1v8.81a1,1,0,0,0,1,1H25a1,1,0,0,1,1,1v1.37a1,1,0,0,1-1,1H2.25a1,1,0,0,1-1-1v-1.37a1,1,0,0,1,1-1h7.92a1,1,0,0,0,1-1v-8.81a1,1,0,0,0-1-1H2.25a1,1,0,0,1-1-1v-1.37a1,1,0,0,1,1-1H25a1,1,0,0,1,1,1Z"/><path class="cls-2" d="M4.29,439.29a1,1,0,0,0,1,1h4.88a1,1,0,0,0,1-1v-6.18a1,1,0,0,1,1-1H13a1,1,0,0,1,1,1v6.18a1,1,0,0,0,1,1H22a1,1,0,0,0,1-1v-9.22a1,1,0,0,1,1-1h1a1,1,0,0,1,1,1v12.6a1,1,0,0,1-1,1H2.25a1,1,0,0,1-1-1V429.88a1,1,0,0,1,1-1h1a1,1,0,0,1,1,1Z"/></svg>